<svg width="46" height="46" viewBox="0 0 46 46" fill="none" xmlns="http://www.w3.org/2000/svg">
<path d="M13.4166 8.62492C10.241 8.62492 7.66659 11.1993 7.66659 14.3749C7.66659 15.4649 7.96984 16.484 8.49658 17.3525C5.84052 17.8605 3.83325 20.1958 3.83325 22.9999C3.83325 25.804 5.84052 28.1393 8.49658 28.6474M13.4166 8.62492C13.4166 5.97856 15.5619 3.83325 18.2083 3.83325C20.8546 3.83325 22.9999 5.97856 22.9999 8.62492V37.3749C22.9999 40.0213 20.8546 42.1666 18.2083 42.1666C15.5619 42.1666 13.4166 40.0213 13.4166 37.3749C10.241 37.3749 7.66659 34.8006 7.66659 31.6249C7.66659 30.5349 7.96984 29.5158 8.49658 28.6474M13.4166 8.62492C13.4166 10.1926 14.1694 11.5844 15.3333 12.4586M8.49658 28.6474C9.17976 27.521 10.2389 26.6477 11.4999 26.2021" stroke="#FF9900" stroke-width="2.5" stroke-linecap="round" stroke-linejoin="round"/>
<path d="M32.5833 37.3749C35.7591 37.3749 38.3333 34.8006 38.3333 31.6249C38.3333 30.5349 38.0301 29.5158 37.5034 28.6474C40.1593 28.1393 42.1667 25.804 42.1667 22.9999C42.1667 20.1958 40.1593 17.8605 37.5034 17.3525M32.5833 37.3749C32.5833 40.0213 30.438 42.1666 27.7917 42.1666C25.1453 42.1666 23 40.0213 23 37.3749V8.62492C23 5.97856 25.1453 3.83325 27.7917 3.83325C30.438 3.83325 32.5833 5.97856 32.5833 8.62492C35.7591 8.62492 38.3333 11.1993 38.3333 14.3749C38.3333 15.4649 38.0301 16.484 37.5034 17.3525M32.5833 37.3749C32.5833 35.8073 31.8305 34.4154 30.6667 33.5412M37.5034 17.3525C36.8201 18.4789 35.761 19.3519 34.5 19.7977" stroke="#FF9900" stroke-width="2.5" stroke-linecap="round" stroke-linejoin="round"/>
</svg>
