<svg width="46" height="46" viewBox="0 0 46 46" fill="none" xmlns="http://www.w3.org/2000/svg">
<path d="M22.9999 42.1666C12.4145 42.1666 3.83325 33.5853 3.83325 22.9999C3.83325 17.6475 6.02716 12.8076 9.56479 9.33029M22.9999 42.1666C21.1542 40.7989 21.4488 39.2063 22.3747 37.6139C23.7984 35.1658 23.7984 35.1658 23.7984 31.9017C23.7984 28.6376 25.7381 27.1071 32.5833 28.476C35.6589 29.0913 37.9003 24.8416 41.8931 26.2448M22.9999 42.1666C32.4794 42.1666 40.3515 35.285 41.8931 26.2448M9.56479 9.33029C11.1926 9.50208 12.104 10.3741 13.6178 11.9736C16.4917 15.0103 19.3655 15.2637 21.2816 14.2515C24.1555 12.7332 21.7405 10.2738 25.1134 8.9373C27.1813 8.11798 27.5754 5.97223 26.5967 4.17018M9.56479 9.33029C13.0236 5.93049 17.7668 3.83325 22.9999 3.83325C24.2293 3.83325 25.4316 3.949 26.5967 4.17018M41.8931 26.2448C42.0729 25.1901 42.1666 24.106 42.1666 22.9999C42.1666 13.6438 35.4629 5.85351 26.5967 4.17018" stroke="#FF9900" stroke-width="2.5" stroke-linejoin="round"/>
</svg>
