<svg width="100" height="100" viewBox="0 0 100 100" fill="none" xmlns="http://www.w3.org/2000/svg">
<path d="M88.0539 17.6068C81.4395 9.82614 72.6002 4.25858 62.7258 1.65347C52.8515 -0.951646 42.416 -0.46925 32.8241 3.03572C23.2322 6.5407 14.9443 12.9 9.07581 21.2577C3.20736 29.6154 0.0401148 39.5702 0.000378337 49.7824C-0.0393581 59.9945 3.05032 69.9738 8.85355 78.3769C14.6568 86.78 22.895 93.2036 32.4593 96.7831C42.0237 100.363 52.455 100.926 62.3494 98.398C72.2437 95.8698 81.1261 90.3712 87.8009 82.6423L84.1318 79.4736C78.1044 86.4528 70.0837 91.418 61.1492 93.7009C52.2146 95.9839 42.7952 95.4749 34.1586 92.2427C25.5221 89.0104 18.083 83.2099 12.8427 75.6219C7.60241 68.034 4.81244 59.0228 4.84833 49.8013C4.88421 40.5797 7.74422 31.5905 13.0434 24.0436C18.3426 16.4966 25.8266 10.7542 34.488 7.58923C43.1495 4.42425 52.5726 3.98865 61.4891 6.34106C70.4056 8.69346 78.3874 13.7209 84.3603 20.7468L88.0539 17.6068Z" fill="white"/>
<circle cx="49.6071" cy="49.9769" r="33.3891" fill="white"/>
<path d="M63.4185 50.2831L54.7552 42.132M63.4185 50.2831L55.7625 57.8655M63.4185 50.2831H36.579" stroke="#FF9900" stroke-width="4" stroke-linecap="round"/>
</svg>
