<svg width="46" height="46" viewBox="0 0 46 46" fill="none" xmlns="http://www.w3.org/2000/svg">
<path d="M6.70825 12.8983C4.88575 15.8313 3.83325 19.2927 3.83325 22.9999C3.83325 33.5853 12.4145 42.1666 22.9999 42.1666C25.0032 42.1666 26.9348 41.8592 28.7499 41.2891M39.0098 33.5416C41.0051 30.5173 42.1666 26.8942 42.1666 22.9999C42.1666 12.4145 33.5853 3.83325 22.9999 3.83325C20.9966 3.83325 19.0651 4.14059 17.2499 4.7107" stroke="#FF9900" stroke-width="2.5" stroke-linecap="round" stroke-linejoin="round"/>
<path d="M9.58333 13.4167C11.7004 13.4167 13.4167 11.7004 13.4167 9.58333C13.4167 7.46624 11.7004 5.75 9.58333 5.75C7.46624 5.75 5.75 7.46624 5.75 9.58333C5.75 11.7004 7.46624 13.4167 9.58333 13.4167Z" stroke="#FF9900" stroke-width="2.5" stroke-linecap="round" stroke-linejoin="round"/>
<path d="M36.4166 40.2499C38.5337 40.2499 40.2499 38.5337 40.2499 36.4166C40.2499 34.2995 38.5337 32.5833 36.4166 32.5833C34.2995 32.5833 32.5833 34.2995 32.5833 36.4166C32.5833 38.5337 34.2995 40.2499 36.4166 40.2499Z" stroke="#FF9900" stroke-width="2.5" stroke-linecap="round" stroke-linejoin="round"/>
<path d="M15.3333 32.5834C17.4504 32.5834 19.1667 30.8672 19.1667 28.7501C19.1667 26.633 17.4504 24.9167 15.3333 24.9167C13.2162 24.9167 11.5 26.633 11.5 28.7501C11.5 30.8672 13.2162 32.5834 15.3333 32.5834Z" stroke="#FF9900" stroke-width="2.5" stroke-linecap="round" stroke-linejoin="round"/>
<path d="M23.0001 32.5834C28.2928 32.5834 32.5834 28.2928 32.5834 23.0001C32.5834 17.7074 28.2928 13.4167 23.0001 13.4167C17.7074 13.4167 13.4167 17.7074 13.4167 23.0001C13.4167 23.6565 13.4827 24.2975 13.6085 24.9167" stroke="#FF9900" stroke-width="2.5" stroke-linecap="round" stroke-linejoin="round"/>
<path d="M23.0165 23H23" stroke="#FF9900" stroke-width="3" stroke-linecap="round" stroke-linejoin="round"/>
</svg>
