<svg width="193" height="26" viewBox="0 0 193 26" fill="none" xmlns="http://www.w3.org/2000/svg">
<path d="M9.81467 25.216C5.45867 25.216 1.85867 22.696 0.922672 18.952C0.922672 18.844 0.922672 18.88 1.06667 18.736L6.14267 16.54H6.21467C6.25067 16.54 6.28667 16.576 6.32267 16.612C6.82667 18.52 8.84267 19.924 11.2187 19.924C13.9907 19.924 15.7187 18.448 15.7187 17.368C15.7187 17.116 15.6107 16.9 15.2147 16.612C13.5947 15.424 9.13067 15.136 6.64667 13.408C5.06267 12.292 4.55867 10.852 4.55867 9.484C4.55867 3.832 11.1827 0.339998 15.9347 0.339998C19.6427 0.339998 22.7027 2.104 24.1427 4.948L24.0707 5.056L19.4627 8.476L19.3547 8.512C19.3187 8.512 19.2827 8.476 19.2827 8.44C18.5627 6.748 16.6187 5.596 14.4947 5.596C11.8667 5.596 10.0307 7.036 10.0307 8.152C10.0307 8.368 10.1387 8.584 10.4987 8.872C12.2627 10.06 16.6187 10.312 19.0667 12.076C20.6867 13.156 21.1907 14.596 21.1907 15.964C21.1907 16.54 21.0827 17.116 20.9387 17.656C19.6427 22.552 14.0627 25.216 9.81467 25.216ZM41.2559 25H35.6399C35.6039 25 35.5679 24.964 35.5319 24.928L31.7519 15.388L31.6439 15.316L31.5359 15.352L29.8439 16.864C29.8439 16.864 29.3759 18.484 27.6839 24.856C27.6479 24.928 27.6119 25 27.5039 25H22.8959C22.8239 25 22.7879 24.964 22.7879 24.892L29.2679 0.663998C29.3039 0.591999 29.3399 0.52 29.4479 0.52H34.0559C34.1279 0.52 34.1639 0.555999 34.1639 0.627998L31.9679 8.944C31.9679 9.016 32.0039 9.052 32.0759 9.052L32.1839 9.016C37.7279 4.084 35.3159 6.208 41.5799 0.591999C41.6159 0.555999 41.6519 0.52 41.6879 0.52H47.7719C47.8439 0.52 47.8799 0.555999 47.8799 0.627998C47.8799 0.7 47.8439 0.735999 47.8079 0.771999L36.1079 11.284V11.392L41.4719 24.784C41.4359 24.892 41.3639 25 41.2559 25ZM55.3901 25H50.7461C50.6741 25 50.6381 24.928 50.6381 24.856L53.3741 14.632L49.3421 0.7C49.3421 0.627998 49.4501 0.52 49.5221 0.52H54.8141C54.8501 0.52 54.9221 0.555999 54.9221 0.591999L57.2981 8.764C57.3341 8.8 57.3701 8.836 57.4061 8.836L57.5501 8.764L64.2821 0.591999C64.3181 0.555999 64.3541 0.52 64.4261 0.52H69.7181C69.7901 0.52 69.8261 0.591999 69.8261 0.627998V0.7L58.3061 14.632L55.5701 24.856C55.5701 24.928 55.4621 25 55.3901 25Z" fill="#FF9900"/>
<path d="M69.9735 25H65.3295C65.2575 25 65.2215 24.964 65.2215 24.892L71.7015 0.663998C71.7375 0.591999 71.8095 0.52 71.8815 0.52H87.9375C88.0095 0.52 88.0455 0.591999 88.0455 0.663998L86.7855 5.308C86.7495 5.38 86.6775 5.452 86.6055 5.452H75.4815C75.4095 5.452 75.3375 5.524 75.3015 5.596L74.0775 10.204C74.0775 10.276 74.1135 10.312 74.1855 10.312H83.1855C83.2575 10.312 83.2935 10.348 83.2935 10.42L82.0695 15.1C82.0335 15.172 81.9615 15.244 81.8895 15.244H72.8535C72.7815 15.244 72.7095 15.28 72.6735 15.352L70.1535 24.856C70.1175 24.928 70.0455 25 69.9735 25ZM100.616 25H84.56C84.488 25 84.452 24.964 84.452 24.892L90.932 0.663998C90.968 0.591999 91.04 0.52 91.112 0.52H95.756C95.828 0.52 95.864 0.591999 95.864 0.663998L90.68 19.924C90.68 20.032 90.716 20.068 90.788 20.068H101.912C101.984 20.068 102.02 20.104 102.02 20.176L100.796 24.856C100.76 24.928 100.688 25 100.616 25ZM125.02 25H119.908C119.836 25 119.8 24.964 119.8 24.928L119.368 22.624C119.332 22.588 119.296 22.552 119.224 22.552H109.792C109.72 22.552 109.684 22.588 109.648 22.624L107.992 24.928C107.92 24.964 107.884 25 107.812 25H102.736C102.664 25 102.628 24.964 102.628 24.892L102.664 24.784L120.304 0.627998C120.304 0.555999 120.376 0.555999 120.412 0.555999C120.484 0.555999 120.52 0.555999 120.556 0.627998L125.2 24.856C125.164 24.928 125.092 25 125.02 25ZM118.18 17.62C118.252 17.62 118.324 17.548 118.36 17.476L117.388 12.364C117.388 12.292 117.316 12.292 117.28 12.292C117.244 12.292 117.172 12.292 117.136 12.364L113.464 17.404L113.428 17.512C113.428 17.584 113.464 17.62 113.536 17.62H118.18ZM146.269 25H141.193C141.121 25 141.085 24.964 141.049 24.928L139.537 15.316C139.501 15.28 139.501 15.244 139.429 15.244H135.397C135.289 15.244 135.217 15.28 135.217 15.352L132.661 24.856C132.625 24.928 132.553 25 132.481 25H127.837C127.765 25 127.729 24.964 127.729 24.892L134.209 0.663998C134.245 0.591999 134.317 0.52 134.389 0.52H144.973C148.393 0.52 150.589 2.824 150.589 5.992C150.589 9.16 148.357 12.616 144.829 14.308C144.793 14.344 144.757 14.38 144.757 14.416L146.449 24.856C146.449 24.928 146.341 25 146.269 25ZM142.381 10.312C144.073 10.312 145.513 8.692 145.513 7.252C145.513 6.208 144.793 5.452 143.677 5.452H137.989C137.917 5.452 137.845 5.524 137.809 5.596L136.585 10.204C136.585 10.276 136.621 10.312 136.693 10.312H142.381ZM165.479 25H149.423C149.351 25 149.315 24.964 149.315 24.892L155.795 0.663998C155.831 0.591999 155.903 0.52 155.975 0.52H172.031C172.103 0.52 172.139 0.591999 172.139 0.663998L170.879 5.308C170.843 5.38 170.771 5.452 170.699 5.452H159.575C159.503 5.452 159.431 5.524 159.395 5.596L158.171 10.204C158.171 10.276 158.207 10.312 158.279 10.312H167.279C167.351 10.312 167.387 10.348 167.387 10.42L166.163 15.1C166.127 15.172 166.055 15.244 165.983 15.244H156.947C156.875 15.244 156.803 15.28 156.767 15.352L155.543 19.924C155.543 20.032 155.579 20.068 155.651 20.068H166.775C166.847 20.068 166.883 20.104 166.883 20.176L165.659 24.856C165.623 24.928 165.551 25 165.479 25ZM177.967 25.216C173.611 25.216 170.011 22.696 169.075 18.952C169.075 18.844 169.075 18.88 169.219 18.736L174.295 16.54H174.367C174.403 16.54 174.439 16.576 174.475 16.612C174.979 18.52 176.995 19.924 179.371 19.924C182.143 19.924 183.871 18.448 183.871 17.368C183.871 17.116 183.763 16.9 183.367 16.612C181.747 15.424 177.283 15.136 174.799 13.408C173.215 12.292 172.711 10.852 172.711 9.484C172.711 3.832 179.335 0.339998 184.087 0.339998C187.795 0.339998 190.855 2.104 192.295 4.948L192.223 5.056L187.615 8.476L187.507 8.512C187.471 8.512 187.435 8.476 187.435 8.44C186.715 6.748 184.771 5.596 182.647 5.596C180.019 5.596 178.183 7.036 178.183 8.152C178.183 8.368 178.291 8.584 178.651 8.872C180.415 10.06 184.771 10.312 187.219 12.076C188.839 13.156 189.343 14.596 189.343 15.964C189.343 16.54 189.235 17.116 189.091 17.656C187.795 22.552 182.215 25.216 177.967 25.216Z" fill="white"/>
</svg>
